<?xml version="1.0" encoding="utf-8"?>
<!-- Generator: Adobe Illustrator 21.1.0, SVG Export Plug-In . SVG Version: 6.00 Build 0)  -->
<svg version="1.1" id="Calque_1" xmlns="http://www.w3.org/2000/svg" xmlns:xlink="http://www.w3.org/1999/xlink" x="0px" y="0px"
	 viewBox="0 0 432 432" style="enable-background:new 0 0 432 432;" xml:space="preserve">
<style type="text/css">
	.st0{fill:#AE3034;}
	.st1{fill:#3E904D;}
	.st2{fill:#F7EB5B;}
	.st3{fill:#221F20;}
	.st4{fill:#BC9A72;}
	.st5{fill:#FFFFFF;}
	.st6{fill:#E9963E;}
	.st7{fill:#EFB156;}
	.st8{fill:#5EB057;}
	.st9{fill:#A27D56;}
	.st10{fill:#BD8346;}
	.st11{fill:#DD658D;}
	.st12{fill:#404041;}
	.st13{fill:#81BF8E;}
	.st14{fill:#ED7E87;}
	.st15{fill:#B0202B;}
	.st16{fill:#BA9453;}
	.st17{fill:#B99352;}
	.st18{fill:#45A49C;}
	.st19{fill:#59B178;}
	.st20{fill:#C9A25F;}
	.st21{fill:#BCBDBF;}
	.st22{fill:#C7345D;}
	.st23{fill:#2E3192;}
	.st24{fill:#8CC63F;}
	.st25{fill:#22B573;}
	.st26{fill:#333333;}
	.st27{fill:#B1A097;}
	.st28{fill:#574B43;}
	.st29{fill:#85328A;}
	.st30{fill:#53A7DB;}
	.st31{fill:#912D61;}
	.st32{fill:#835F41;}
	.st33{fill:#929496;}
	.st34{fill:#808080;}
	.st35{fill:#6F4E2F;}
	.st36{fill:#A6A8AA;}
	.st37{fill:#DF643A;}
	.st38{fill:#98C355;}
	.st39{fill:#D35998;}
	.st40{fill:#6F665A;}
	.st41{fill:#BFB49D;}
	.st42{fill:#AE82B3;}
	.st43{fill:#B3B3B3;}
	.st44{fill:#5E328B;}
	.st45{fill:#DA404D;}
	.st46{fill:#A994C1;}
	.st47{fill:#8B575B;}
	.st48{fill:#C9C0AF;}
	.st49{fill:#A67C52;}
	.st50{fill:#86A391;}
	.st51{fill:#6595A9;}
	.st52{fill:#483E49;}
	.st53{fill:#F6BA00;}
	.st54{fill:#FC8080;}
	.st55{fill:#1A1A1A;}
	.st56{fill:#749FA8;}
	.st57{fill:#ABC337;}
	.st58{fill:#F67E20;}
	.st59{fill:#52A9B2;}
	.st60{fill:#925A8B;}
	.st61{fill:#DD8383;}
	.st62{fill:#929C3B;}
	.st63{fill:#4D4D4D;}
	.st64{fill:#C69C6D;}
	.st65{fill:#DBB753;}
	.st66{fill:#9EB9B4;}
	.st67{fill:#F2F2F2;}
	.st68{fill:#E2C87F;}
	.st69{fill:#E8BDC4;}
	.st70{fill:#D86D29;}
	.st71{fill:#E0CDAD;}
	.st72{fill:#E6E6E6;}
	.st73{fill:#CCD6CE;}
	.st74{fill:#9FD3C7;}
	.st75{fill-rule:evenodd;clip-rule:evenodd;}
	.st76{fill:#E5BE51;}
	.st77{fill:#B3A693;}
	.st78{fill:#717370;}
	.st79{fill:#9FB14D;}
	.st80{fill:#736357;}
	.st81{fill:#51642D;}
	.st82{fill:#743315;}
	.st83{fill:#0071BC;}
	.st84{fill:#9C1B20;}
	.st85{fill:#009245;}
	.st86{fill:#F6E6CC;}
	.st87{fill:#84CBCB;}
	.st88{fill:#7D9B39;}
	.st89{fill:#3C4E5C;}
	.st90{fill:#998675;}
	.st91{fill:#C7B299;}
	.st92{fill:#9B2F10;}
	.st93{fill:#E7A136;}
	.st94{fill:#978E43;}
	.st95{fill:#7D5E18;}
	.st96{fill:#F2C545;}
	.st97{fill:#E07D28;}
	.st98{fill:#E0D2BE;}
	.st99{fill:#C4A18D;}
	.st100{fill:#BCBD84;}
	.st101{fill:#5F645E;}
	.st102{fill:#CAC2C2;}
	.st103{fill:#959736;}
	.st104{fill:#B0D24A;}
	.st105{fill:#754C24;}
	.st106{fill:#603813;}
	.st107{fill:#8C4A33;}
	.st108{fill:#0B493A;}
	.st109{fill:#C17953;}
	.st110{fill:#F7C64D;}
	.st111{fill:#005371;}
	.st112{fill:#D3E2DC;}
	.st113{fill:#3E8A64;}
	.st114{fill:#299798;}
	.st115{fill:#731115;}
	.st116{fill:#4F4544;}
	.st117{fill:#4C6047;}
	.st118{fill:#4C301C;}
	.st119{fill:#867274;}
	.st120{fill:#C13F47;}
	.st121{fill:#BC8AA8;}
	.st122{fill:#634E42;}
	.st123{fill:#E1B8D7;}
	.st124{fill:#6D866B;}
	.st125{fill:#422918;}
	.st126{fill:#925F36;}
	.st127{fill:#1D1D1B;}
	.st128{fill:#00A099;}
	.st129{fill:#F8B133;}
	.st130{fill:#006633;}
	.st131{fill:#683B11;}
	.st132{fill:#B17F49;}
	.st133{fill:#A3897A;}
	.st134{fill:#E488B5;}
	.st135{fill:#93C01F;}
	.st136{fill:#EDE287;}
	.st137{fill:#E9CB9A;}
	.st138{fill:#EAB8CC;}
	.st139{fill:#7E4E24;}
	.st140{fill:#E5332A;}
	.st141{fill:#F29100;}
</style>
<g>
	<g>
		<path class="st11" d="M173.7,199.7c-0.5-1.4-1.7-1.9-3-1.1c-0.7,0.4-1.3,1-1.9,1.7c-1,1.2-1.5,2.7-2,4.2
			c-1.6,5.6-1.8,11.3-1.7,17.1c0,0.1,0.1,0.1,0.2,0.3c0.2-0.2,0.5-0.4,0.7-0.6c4.5-5,7-11,8-17.5C174.3,202.4,174.2,201,173.7,199.7
			z"/>
		<path class="st11" d="M242.8,203.5c-3.2,2.8-5.1,16.2-3.7,21.3c0.1,0,0.2,0,0.2-0.1c0.3-0.6,0.6-1.1,0.9-1.7
			c1.9-3.8,3.2-7.8,3.6-12.1C244,208.4,243.8,206,242.8,203.5z"/>
		<path class="st11" d="M207.3,215.7c-0.1,0.5-0.1,0.9-0.2,1.2c-0.3,3.1-0.3,6.2,0.1,9.3c0.2,2.3,0.7,4.5,1.2,6.8
			c0.2,0.8,0.6,1.7,1.1,2.4c0.6,0.9,1.7,1,2.5,0.3c0.5-0.5,1.1-1,1.4-1.6c0.7-1.3,1.4-2.6,1.8-3.9c0.9-3.4,1.7-6.8,2.5-10.2
			c0.3-1.4,0.5-2.8,0.7-4.3C214.6,215.5,211,215.6,207.3,215.7z"/>
		<path class="st11" d="M262.2,220.3c0.1-0.7-0.1-1.4-0.8-1.8c-2.3,1.5-4.2,8.6-3.2,11.8c0.2-0.2,0.4-0.5,0.5-0.7
			c1.3-2,2.4-4.2,3-6.5C262.1,222.1,262.1,221.2,262.2,220.3z"/>
		<path class="st11" d="M291.6,168.9c-20.3-10.9-34.4-6.3-40.4-2.5c-10.8-6-22.8-9.1-35-9.1c-12.2,0.1-24.2,3.3-35.1,9.3
			c-5.9-3.8-20-8.3-40.4,2.7c-30.4,16.4-98.3,62.8-66.4,78c3.1,1.5,6.4,1.8,9.8,1.7c8.1-0.1,15.6-2.4,22.8-5.8
			c7.2-3.4,13.8-7.6,20.3-12.1c6.2-4.3,12.1-9,17.8-13.9c-0.2,1.6-0.4,3.2-0.5,4.8c-0.1,2.4-0.1,4.7,0.1,6.9c-2.5,1.1-5,2.2-7.4,3.3
			c-6.2,2.8-12.6,5.3-19.1,7.4c-0.7,0.2-1.4,0.6-1.9,1c-0.8,0.6-1.1,1.5-0.8,2.5c0.3,1,0.9,1.7,1.9,1.8c0.6,0.1,1.2,0,1.8-0.1
			c3.2-1.1,6.4-2.1,9.6-3.3c4-1.6,8-3.2,11.9-4.9c1.6-0.7,3.1-1.4,4.7-2.2c0.4,2,0.9,3.9,1.6,5.8c-2.2,1.6-4.4,3.2-6.5,4.7
			c-4,2.9-8.1,5.8-12.1,8.7c-1.3,0.9-2.6,1.9-3.8,2.9c-0.7,0.6-1.4,1.3-1.9,2c-0.6,1-0.4,2.2,0.3,2.9c0.8,0.8,1.9,1,2.9,0.5
			c0.4-0.2,0.7-0.4,1-0.6c2.4-1.8,4.8-3.5,7.2-5.3c4.3-3.1,8.5-6.1,12.8-9.2c0.7-0.5,1.5-1.1,2.2-1.7c1,1.9,2.2,3.8,3.5,5.5
			c-1.7,1.3-3.4,2.7-5,4.1c-4.2,3.5-8.2,7.1-12.3,10.7c-0.9,0.8-1.9,1.7-2.7,2.6c-0.9,1-0.8,2.2-0.1,3.1c0.7,0.9,1.8,1.3,3,0.8
			c0.5-0.2,0.9-0.6,1.3-0.9c6.5-5.5,12.9-11,19.4-16.5c11.7,11.7,31.5,17.3,55.3,18.3c1.5,0.1,3.1,0.1,4.6,0.1
			c1.5,0,3.1-0.1,4.6-0.2c24.8-1.1,45.3-7.3,56.8-20.1c1.4,1.1,2.7,2.3,4.1,3.4c5.3,4.3,10.4,8.9,15.1,13.8c0.5,0.5,1.1,1,1.8,1.3
			c0.9,0.5,1.8,0.3,2.6-0.4c0.7-0.7,1.1-1.6,0.7-2.5c-0.2-0.5-0.5-1.1-0.9-1.5c-2.4-2.4-4.8-4.8-7.3-7.1c-3.2-2.9-6.5-5.7-9.7-8.5
			c-1-0.9-2-1.7-3.1-2.5c1.1-1.6,2-3.3,2.9-5c2.7,1.4,5.3,2.7,7.8,4.1c4.4,2.3,8.8,4.7,13.2,7c1.4,0.7,2.8,1.5,4.3,2.2
			c0.8,0.4,1.7,0.7,2.6,0.8c1.1,0.1,2.2-0.6,2.5-1.6c0.4-1,0-2.2-0.8-2.9c-0.3-0.2-0.7-0.4-1-0.6c-2.6-1.4-5.3-2.7-7.9-4.1
			c-4.6-2.4-9.3-4.9-13.9-7.3c-1.6-0.8-3.1-1.6-4.7-2.3c0.7-2,1.1-4.2,1.5-6.4c3.1,1.4,6.5,3.1,10,4.6c5,2.2,10,4.2,15,6.3
			c1.2,0.5,2.3,1,3.5,1.3c1.2,0.3,2.3-0.2,2.9-1.3c0.5-1,0.3-2.2-0.6-3.1c-0.4-0.3-0.9-0.5-1.4-0.8c-7.9-3.4-15.7-6.7-23.6-10.1
			c-1.6-0.7-3.1-1.6-4.7-2.2c-0.2-0.1-0.4-0.1-0.6-0.2c0.1-1.7,0.1-3.4,0-5.2c-0.1-1.6-0.2-3.2-0.4-4.8c5.7,4.9,11.6,9.5,17.8,13.8
			c6.4,4.4,13,8.6,20.2,12c7.2,3.3,14.7,5.6,22.8,5.6c3.4,0,6.8-0.3,9.8-1.8C389.6,231.1,321.9,185.1,291.6,168.9z M147.5,201.9
			c-0.2,0.3-0.5,0.6-0.7,0.8c-0.7,0.6-1.5,1.1-2.1,1.7c-8.2,7.5-17,14.3-26.1,20.6c-7,4.9-14.2,9.5-22,13.2
			c-3.1,1.5-6.1,2.9-9.5,3.7c-2.2,0.5-4.4,0.9-6.6,0.6c-11.7-1.3-0.5-19.2,29.3-41.7c35-26.4,22.9-16.1,37.1-2.6
			C148,199.5,148.2,200.6,147.5,201.9z M185.1,211c1.4,0,2.6,1.4,2.5,3c0,1.6-1.2,2.9-2.7,2.8c-1.4,0-2.6-1.4-2.5-3
			C182.4,212.2,183.6,211,185.1,211z M279,234.6c-0.9,1.4-2,2.8-3.2,3.9c-2.9,2.8-6.5,4.3-10.5,4.9c-3.3,0.4-6.3-0.4-9-2.4
			c-0.2-0.1-0.4-0.3-0.6-0.5c-0.4,0.2-0.8,0.4-1.2,0.6c-1.7,0.9-3.5,1.6-5.4,2c-3.4,0.6-6.5-0.2-9.1-2.4c-1.1-0.9-2.1-2.1-3.2-3.2
			c-0.2,0.1-0.5,0.3-0.8,0.5c-2.2,1.4-4.6,2.2-7.3,2.2c-2.2-0.1-4.1-0.9-5.7-2.4c-1.2-1.1-2.1-2.4-2.8-3.9c-0.2,0.4-0.3,0.6-0.5,0.9
			c-0.7,1.3-1.4,2.5-2.2,3.8c-0.8,1.2-1.8,2.1-3,2.7c-3,1.7-6.7,1.2-9.1-1.2c-1-1-1.8-2.3-2.3-3.6c-0.1-0.4-0.3-0.7-0.5-1.2
			c-0.2,0.4-0.4,0.7-0.6,1c-0.7,1.2-1.4,2.4-2.2,3.6c-4.3,5.8-11.8,5.1-15.5-0.6c-0.3-0.5-0.6-1-0.9-1.5c-0.2,0.4-0.4,0.7-0.6,1
			c-0.8,1.4-1.8,2.8-3.1,3.8c-2.5,2.1-5.3,2.6-8.4,1.8c-4.1-1.1-6.8-3.8-8.8-7.4c-0.5-1-0.9-2-1.4-3.1c-0.6,0.4-1.3,0.7-1.9,1
			c-0.5,0.3-1.1,0.5-1.7,0.6c-1.6,0.3-3-0.5-3.5-1.9c-0.5-1.4,0.2-2.8,1.6-3.6c1-0.5,1.9-1.1,2.8-1.6c0.4-0.2,0.8-0.6,1.1-0.8
			c-0.1-2.2-0.3-4.2-0.4-6.3c-0.1-6.3,0.3-12.5,2.1-18.5c0.6-2,1.4-3.9,2.7-5.6c1.8-2.3,3.9-4,6.9-4.3c3.2-0.3,5.8,0.9,7.5,3.6
			c1.2,2,1.6,4.2,1.6,6.5c0,3.2-0.9,6.3-1.9,9.3c-2.1,6.5-5.8,12-10.8,16.6c-0.2,0.2-0.5,0.4-0.7,0.7c-0.2,0.2-0.3,0.6-0.3,0.8
			c0.8,3.2,2.2,6.1,5.2,7.8c2,1.1,3.4,1,4.9-0.7c1.4-1.6,2.2-3.5,2.9-5.4c1-2.7,1.5-5.4,1.9-8.2c0.1-0.6,0.2-1.1,0.3-1.7
			c0.4-1.6,1.9-2.7,3.4-2.5c1.6,0.3,2.6,1.6,2.5,3.3c-0.2,2.6-0.2,5.2,0.2,7.8c0.2,1.3,0.6,2.7,1.1,3.9c0.3,0.9,0.9,1.7,1.6,2.3
			c1.3,1.2,2.9,1.1,4.2-0.2c1.4-1.4,2.3-3.1,3-4.9c1.5-3.5,2.3-7.1,2.9-10.8c0.3-1.4,0.4-2.9,0.6-4.3c0-0.2,0-0.5,0-0.8
			c-1.2,0-2.4,0-3.5,0.1c-1.1,0-2.2,0.1-3.3,0.1c-1.6-0.1-2.9-1.3-2.9-2.8c-0.1-1.6,1.2-2.9,2.9-3c2.4-0.1,4.7-0.2,7.2-0.3
			c0-0.2,0.1-0.5,0.2-0.8c0.2-2.1,0.3-4.2,0.4-6.3c0.1-2,1.3-3.3,3.1-3.2c1.8,0,3,1.3,3,3.3c0,1.9-0.1,3.8-0.2,5.7
			c0,0.4,0,0.8,0,1.3c3.8,0,7.5-0.1,11.4-0.1c0.2-2,0.3-3.9,0.5-5.7c0.1-0.6,0.1-1.1,0.3-1.7c0.4-1.2,1.5-2,2.7-2
			c1.3,0,2.5,0.8,2.8,2.1c0.2,0.8,0.2,1.7,0.1,2.5c-0.1,1.5-0.2,3-0.4,4.6c1,0,1.8,0.1,2.7,0.1c0.6,0,1.2-0.1,1.8-0.1
			c1.6,0.1,2.8,1.2,3,2.7c0.1,1.6-0.9,2.8-2.5,3.1c-0.7,0.1-1.4,0.1-2.2,0.2c-1.1,0-2.2,0.1-3.3,0.1c-0.3,3-0.6,6-0.4,9
			c0.1,2.2,0.6,4.3,1.3,6.4c0.4,0.9,0.9,1.8,1.6,2.5c0.7,0.6,1.5,0.8,2.4,0.7c1.6-0.2,2.9-0.9,4.1-1.9c0.5-0.4,0.7-0.8,0.5-1.4
			c-0.4-1.8-0.9-3.5-1.2-5.3c-0.5-3-0.5-6-0.2-9c0.3-4.1,1-8.1,2.5-11.9c0.7-1.8,1.5-3.6,2.9-5c0.6-0.6,1.2-1.2,1.9-1.6
			c2.3-1.4,5-0.9,6.7,1.2c0.6,0.8,1.2,1.7,1.6,2.7c1.4,3.6,1.6,7.3,1.1,11.1c-1,7-3.8,13.4-7.7,19.2c-0.1,0.2-0.3,0.4-0.4,0.6
			c0,0,0,0.1,0,0.2c1.2,2.1,2.6,3.9,5.2,4.3c0.5,0.1,1,0,1.6,0c1.7-0.3,3.3-1,4.8-1.9c-0.1-0.6-0.2-1.1-0.3-1.7
			c-1.1-5.4-0.4-10.7,1.8-15.7c0.7-1.5,1.6-2.9,3-3.9c2.9-2.3,6.5-1.9,8.9,1c1.5,1.8,2,3.9,1.8,6.2c-0.2,1.5-0.4,3-0.9,4.4
			c-1.1,3.6-2.9,6.9-5.4,9.8c-0.2,0.2-0.3,0.4-0.5,0.7c2,0.5,3.8,0.9,5.8,0.6c2.8-0.4,4.8-2,6.4-4.2c0.3-0.4,0.5-0.7,0.8-1.1
			c1.1-1.4,2.8-1.6,4.1-0.7C279.6,231.5,280,233.1,279,234.6z M351.6,241.8c-2.3,0.3-4.4-0.1-6.6-0.6c-3.3-0.8-6.4-2.2-9.5-3.6
			c-7.8-3.7-14.9-8.2-21.9-13.1c-9.1-6.3-17.9-13-26-20.5c-0.7-0.6-1.4-1.1-2.1-1.7c-0.3-0.2-0.6-0.5-0.7-0.8
			c-0.7-1.3-0.5-2.4,0.7-3.6c14.3-13.6,2.2-23.9,37.1,2.4C352.2,222.6,363.3,240.5,351.6,241.8z"/>
	</g>
	<g>
		<path class="st12" d="M129.3,116.4l0,3.7c0.1,9.7-3.9,18.4-10.2,22.2c-2,1.2-4.2,1.8-6.3,1.8c-2,0-4-0.5-5.8-1.6
			c-5.4-3.2-11.8-12.1-11.8-36.6c0-34.6,10-40.6,15.9-41.1c8.2-0.7,16,8.7,18.2,21.9l0.6,3.7l-7.2,1.2l-0.6-3.7
			c-0.8-4.8-2.5-9-4.8-12.1c-1.9-2.4-4-3.8-5.6-3.6c-2,0.2-4,2.6-5.6,6.6c-2.4,6-3.6,15.4-3.6,27.1c0,9,0.9,16.4,2.7,21.9
			c1.4,4.1,3.3,7.1,5.4,8.3c1.5,0.9,3.2,0.8,4.9-0.2c3.4-2,6.7-7.7,6.6-15.7l0-3.7L129.3,116.4z"/>
		<path class="st12" d="M173.5,65.2v78.5h-7.3v-5.9c-3.9,5.4-8.5,6.3-11.1,6.3c-9.8,0-16.4-7.1-19.6-21.2
			c-2.6-11.4-2.9-25.9-2.9-38.5c0-2.5,0-5,0-7.5c0-2.4,0-4.8,0-7.2l0-4.9h7.3l0,4.9c0,2.4,0,4.8,0,7.3c0,2.5,0,5,0,7.5
			c0,13.1,0.3,26.7,2.7,36.9c3.2,14,8.7,15.6,12.6,15.6c2.6,0,4.9-2,6.7-5.8c1.9-3.9,4.2-11.6,4.3-26.2l0-3.6l0.1,0V65.2H173.5z"/>
		<path class="st12" d="M216.7,64.9v7.4h-16.6v71.9h-7.3V72.3h-16.6v-7.4H216.7z"/>
		<path class="st12" d="M253.6,102.3h-26.8c0,1.2,0,2.4,0,3.6c0,23.6,6.2,29.1,8.1,30.2c1.5,0.9,3.2,0.8,4.9-0.2
			c3.4-2,6.7-7.7,6.6-15.7l0-3.7l7.3-0.1l0,3.7c0.1,9.7-3.9,18.4-10.2,22.2c-2,1.2-4.2,1.8-6.3,1.8c-2,0-4-0.5-5.8-1.6
			c-5.4-3.2-11.8-12.1-11.8-36.6c0-19.2,3-32,9.1-37.8c2.4-2.3,5.2-3.5,8.2-3.3c8.2,0.4,16.9,14.1,16.9,33.8V102.3z M227.2,94.9
			h19.1c-0.4-6.1-1.8-11.7-4-16.2c-2.3-4.7-4.8-6.5-5.9-6.5c-1,0-1.9,0.4-2.8,1.3C231.9,75.1,228.4,80.2,227.2,94.9z"/>
		<path class="st12" d="M286.5,94.9v-3.7c0-7.6-2.3-16.4-8.7-18.1c-3.4-0.9-6.9,0.6-8.6,3.7c-4.4,7.9,2.8,19.8,11,28.2
			c15.9,16.4,13.7,26.9,10.9,31.6c-2.8,4.8-8.4,7.6-14.5,7.6c-2,0-4.1-0.3-6.1-0.9c-7.1-2.2-14.5-9-14-21.4l0.2-3.7l7.2,0.3
			l-0.2,3.7c-0.4,9.9,6,13,8.8,13.9c5,1.5,10.3,0.1,12.3-3.3c2.8-4.8-0.9-13.2-9.8-22.5C254.4,89,261.5,75.4,262.8,73
			c3.4-6.2,10.2-9.1,16.8-7.2c3.3,0.9,14.1,5.5,14.1,25.4v3.7H286.5z"/>
		<path class="st12" d="M336.8,64.9v7.4h-16.6v71.9H313V72.3h-16.6v-7.4H336.8z"/>
	</g>
	<g>
		<path class="st12" d="M150.9,341c0,6.7-2,13-5.6,17.7c-4.3,5.6-10.5,8.5-18,8.5c-3.9,0-8.1-0.9-12.5-2.5v0.8h-7.3v-22.8h-0.1v-3.7
			c0-0.6,0-1.3,0.1-1.9v-50.6h7.3V323c4.6-4.3,10.5-6.7,16.9-6.7c5.8,0,11,2.9,14.5,8.1C149.3,328.9,150.9,334.8,150.9,341z
			 M143.7,341c0-8.4-4.2-17.3-11.9-17.3c-6.7,0-15.8,5.1-16.9,13.5v19.4c4.5,2.1,8.7,3.1,12.5,3.1c5.3,0,9.4-1.9,12.3-5.7
			C142.2,350.8,143.7,346.1,143.7,341z"/>
		<path class="st12" d="M194.6,286.7v78.5h-7.3v-5.9c-3.9,5.4-8.5,6.3-11.1,6.3c-9.8,0-16.4-7.1-19.6-21.2
			c-2.6-11.4-2.9-25.9-2.9-38.5c0-2.5,0-5,0-7.5c0-2.4,0-4.8,0-7.2l0-4.9h7.3l0,4.9c0,2.4,0,4.8,0,7.3c0,2.5,0,5,0,7.5
			c0,13.1,0.3,26.7,2.7,36.9c3.2,14,8.7,15.6,12.6,15.6c2.6,0,4.9-2,6.7-5.8c1.9-3.9,4.2-11.6,4.3-26.2l0-3.6l0.1,0v-36.1H194.6z"/>
		<path class="st12" d="M237.4,362l-0.2,3.7l-7.2-0.4l0.2-3.7c2.2-45.1-7.6-63.7-13.1-67.2c-1.7-1.1-2.8-0.7-3.6-0.3
			c-2.1,1.1-4.1,4.5-5.6,9.1c-3.8,11.7-3.2,24.6-3.2,62.2h-7.3v-78.8h7.3v6.2c1.6-2.3,3.3-4.1,5.3-5.2c3.5-1.9,7.4-1.7,11,0.5
			c5.5,3.5,10.1,11.8,13,24C237.2,325.4,238.4,342.6,237.4,362z"/>
		<path class="st12" d="M280.5,362l-0.2,3.7l-7.2-0.4l0.2-3.7c2.2-45.1-7.6-63.7-13.1-67.2c-1.7-1.1-2.8-0.7-3.6-0.3
			c-2.1,1.1-4.1,4.5-5.6,9.1c-3.8,11.7-3.2,24.6-3.2,62.2h-7.3v-78.8h7.3v6.2c1.6-2.3,3.3-4.1,5.3-5.2c3.5-1.9,7.4-1.7,11,0.5
			c5.5,3.5,10.1,11.8,13,24C280.3,325.4,281.5,342.6,280.5,362z"/>
		<path class="st12" d="M324.5,328.4c0,19.8-0.2,37.4-18.6,37.4c-11.5,0-18.9-5.5-18.9-21.3v-3.6h7.3c0,0.9,0,1.9,0,2.9
			c0,11.3,5.6,15.2,11,15.2c12.3,0,12-13,12-29.4c0-2.5,0-5.2-0.1-8c-3.6,3.7-8.1,5.6-12.7,5.6c-10.3,0-20.8-9.6-20.8-29.6
			c0-2,0.1-4.2,0.3-6.4l0.7-5.1l7.2,0.7l-0.7,5.1c-0.2,2-0.3,3.9-0.3,5.7c0,15.2,6.9,22.2,13.5,22.2c15.1,0,12.3-24.8,12.3-30.9
			c0-0.7,0-1.5,0-2.5h7.3c0,0.5,0,1,0,1.4c0,1.1,0,2.1,0,3.1C324,301.1,324.5,316.4,324.5,328.4z"/>
	</g>
</g>
</svg>
