<?xml version="1.0" encoding="UTF-8"?>
<svg width="571px" height="165px" viewBox="0 0 571 165" version="1.1" xmlns="http://www.w3.org/2000/svg" xmlns:xlink="http://www.w3.org/1999/xlink">
    <!-- Generator: Sketch 47.1 (45422) - http://www.bohemiancoding.com/sketch -->
    <title>White/green wordmakr</title>
    <desc>Created with Sketch.</desc>
    <defs></defs>
    <g id="Style" stroke="none" stroke-width="1" fill="none" fill-rule="evenodd">
        <g id="White/green-wordmakr">
            <g id="Wordmark" transform="translate(31.000000, 26.000000)">
                <g id="Page-1">
                    <path d="M445.938769,95.6838057 L433.187504,95.6838057 L433.187504,46.5680006 L422.554278,46.5680006 L422.554278,35.6411589 L433.187504,35.6411589 L433.187504,17.3961789 L445.938769,17.3961789 L445.938769,35.6411589 L458.470258,35.6411589 L458.470258,46.5675809 C458.470258,46.5675809 458.470258,46.5680006 458.469836,46.5680006 L445.938769,46.5680006 L445.938769,95.6838057 Z" id="Fill-1" fill="#FFFFFF"></path>
                    <path d="M486.29466,96.3625257 C481.300541,96.3625257 476.041931,94.8511346 471.8493,91.8971854 C466.748878,88.3035917 463.819648,82.3839414 463.819648,76.1658743 L475.60533,76.1658743 L475.61461,76.3345994 C475.737787,78.6556194 476.813891,80.8658349 478.684313,82.2588666 C479.055529,82.5354583 479.449102,82.7784729 479.862079,82.9837131 L479.903841,83.0063777 C482.465231,84.5362363 485.411335,85.1666471 488.91131,84.9353846 C493.902898,84.5811457 497.205454,81.7988597 497.322303,77.8476694 C497.421856,74.4937326 494.941881,72.2020926 489.950715,71.0327686 L481.850194,69.1436346 C469.767117,65.8912686 464.595404,59.6022697 465.554238,49.3461314 L465.555082,49.3402554 C466.456124,40.6274066 475.732725,33.8024326 486.674313,33.8024326 C495.20806,33.8024326 501.752005,37.0014949 505.184065,42.6067791 C506.786199,45.2224386 507.541707,48.2657869 507.523146,51.3292814 L507.521459,51.65456 L495.220715,51.65456 C495.271757,49.62734 494.329375,47.670632 492.638655,46.5390823 C491.144511,45.5389031 489.17327,44.979424 486.926993,44.979424 C482.861757,44.979424 479.463022,46.9701289 478.661112,49.8208283 C478.177266,51.62518 478.204263,52.8557823 478.755603,54.0612017 C479.628804,55.8966123 481.656993,57.1939491 485.327811,58.259184 L494.037042,60.3942706 C501.23863,62.1663043 509.822576,66.679492 509.822576,78.1179654 C509.822576,83.5297614 507.365801,88.1697029 502.717588,91.53791 C498.423717,94.649252 492.591409,96.3625257 486.29466,96.3625257" id="Fill-3" fill="#FFFFFF"></path>
                    <path d="M164.403246,95.7145288 L151.650715,95.7145288 L151.650715,61.8519803 C151.650715,52.4579351 146.817737,46.8497128 138.723122,46.8497128 C134.599672,46.7821388 131.020392,48.1483088 128.36198,50.7589317 C125.319697,53.7460383 123.644586,58.2227108 123.644586,63.3637911 L123.644586,95.7145288 L110.89332,95.7145288 L110.89332,61.726066 C110.89332,52.5498525 106.230764,46.8497128 98.7250323,46.8497128 C91.0687047,46.8497128 82.8876129,51.1878797 82.8876129,63.3637911 L82.8876129,95.7145288 L70.1350819,95.7145288 L70.1350819,35.6723017 L82.8876129,35.6723017 L82.8876129,42.8607483 C84.4425012,40.6765551 86.7031216,38.7899394 89.5340645,37.3310125 C92.3384318,35.8859363 95.7093251,34.8899543 98.5508139,34.667086 C100.880615,34.5373943 103.101161,34.6679254 105.167737,35.0532231 C112.374387,36.1469985 117.546521,39.7456288 120.542402,45.7542585 C125.944859,36.4164551 134.588705,34.4135785 141.002725,34.4135785 C148.513519,34.4135785 154.37198,36.7891614 158.416124,41.4756911 C162.388978,46.0791174 164.403246,52.6812231 164.403246,61.097334 L164.403246,95.7145288 Z" id="Fill-6" fill="#FFFFFF"></path>
                    <path d="M205.773442,46.8497968 C194.983293,46.8497968 187.151481,54.6950962 187.151481,65.5039982 C187.151481,76.3552913 195.157089,84.5380411 205.773442,84.5380411 C214.9256,84.5380411 224.775898,78.5818756 224.775898,65.5039982 C224.775898,53.3876862 214.985501,46.8497968 205.773442,46.8497968 M204.760613,96.9737556 C196.53101,96.9737556 188.892821,93.9367031 183.253293,88.4229165 C177.379645,82.6803856 174.145005,74.5861956 174.145005,65.6307519 C174.145005,56.5049042 177.295278,48.6281262 183.25498,42.8528576 C188.870464,37.4108422 196.507809,34.4136625 204.760613,34.4136625 C213.131531,34.4136625 220.786171,37.7659205 224.902871,43.0954525 L224.902871,35.6723856 L237.528851,35.6723856 L237.528851,95.7146128 L224.902871,95.7146128 L224.902871,88.0510496 C220.725427,93.5274816 213.065303,96.9737556 204.760613,96.9737556" id="Fill-8" fill="#FFFFFF"></path>
                    <polygon id="Fill-10" fill="#FFFFFF" points="357.770146 95.7173829 340.886151 95.7173829 314.053993 67.20829 314.053993 95.7123463 300.625258 95.7123463 300.625258 0.0984940286 314.053993 0.0984940286 314.053993 55.3979497 332.767491 35.613038 349.724042 35.613038 325.377764 61.2991326"></polygon>
                    <path d="M263.422888,95.7145288 L250.035072,95.7145288 L250.035072,35.6739805 L263.427107,35.6739805 L263.427107,42.7801631 C267.688074,38.063414 273.206958,35.6739805 279.8513,35.6739805 C284.393211,35.7499488 288.487132,37.0485448 292.02929,39.5340928 C292.459985,39.8367068 293.486313,40.499016 294.02331,40.8436014 C294.205965,40.9607017 294.244352,41.2087528 294.108099,41.3766385 L284.589365,53.123602 C284.405444,53.3502477 284.08527,53.4119457 283.830481,53.2684034 C283.372367,53.0094397 282.647231,52.5989591 282.100953,52.2871114 C279.861424,51.0090814 277.699092,50.1604191 275.428347,50.1604191 C272.289042,50.1604191 269.566089,51.2214568 267.335419,53.314572 L267.304203,53.3418534 C264.806511,55.3879605 263.501772,58.7767337 263.427107,63.415416 L263.427107,95.7103317 C263.427107,95.71285 263.425419,95.7145288 263.422888,95.7145288" id="Fill-12" fill="#FFFFFF"></path>
                    <path d="M369.503395,60.484761 C369.503395,60.484761 369.583122,59.9609575 369.710516,59.412391 C370.611558,55.5531181 372.58997,52.3569938 375.370293,50.048985 C378.348457,47.581065 382.24327,46.132631 386.731186,45.9848915 C386.985975,45.9727198 387.244983,45.9685227 387.504412,45.9685227 C396.281558,45.9685227 402.673643,51.0760258 404.544908,59.4207853 C404.668506,59.9651547 404.779449,60.484761 404.779449,60.484761 L369.503395,60.484761 Z M408.942129,42.8462681 C403.557811,37.4076104 395.944511,34.415887 387.504412,34.415887 C383.938208,34.415887 380.503618,34.9434678 377.303568,35.958337 C373.572849,37.1331173 370.158928,38.9706264 367.234759,41.4016115 C366.683419,41.8599395 366.148953,42.3388335 365.634734,42.8378738 C359.748432,48.5430501 356.634859,56.3799553 356.634859,65.5062227 C356.634859,83.7377718 369.616025,96.9734618 387.504412,96.9734618 C396.783543,96.9734618 405.09203,93.5557284 410.694015,87.6218078 L402.636521,79.0520815 C399.239052,83.0628713 393.830268,85.4199867 387.886596,85.4199867 C378.706174,85.4199867 371.557315,79.9729347 369.673816,71.5505281 C369.624462,71.3297584 369.677613,71.1005944 369.817663,70.9247341 C369.957712,70.7526513 370.163146,70.6540184 370.385454,70.6540184 L417.489375,70.6540184 L417.489375,65.5062227 C417.489375,56.3308487 414.531881,48.4939435 408.942129,42.8462681 L408.942129,42.8462681 Z" id="Fill-14" fill="#FFFFFF"></path>
                    <path d="M1.96828784,39.6257165 C1.96828784,25.3306676 15.3194045,16.7899016 28.2267494,16.7899016 C42.8243921,16.7899016 53.2964764,25.5069476 54.2877916,38.476119 C54.37933,39.4410422 54.37933,41.3486436 54.37933,41.3486436 L42.2080893,41.3490633 C42.2080893,41.3490633 42.1903722,39.9044067 41.9933747,38.7665613 C41.9933747,38.7665613 41.8866501,38.1281759 41.8824318,38.0954382 C41.8453102,37.9153807 41.8081886,37.7349036 41.7630521,37.5590433 C41.7136973,37.362617 41.6601241,37.1703879 41.6027543,36.977739 C41.5449628,36.7855099 41.4833747,36.5974779 41.4133499,36.4132233 C40.6688089,34.3671162 39.3526799,32.6399919 37.5839206,31.3304833 C37.4236228,31.2117042 37.2591067,31.0971222 37.0903722,30.9825402 C36.9385112,30.8801299 36.7862283,30.7823365 36.6255087,30.6879007 C36.4981141,30.6102536 36.3707196,30.5368036 36.2429032,30.467131 C36.140397,30.405433 36.037469,30.3483519 35.9307444,30.2988256 C35.6713151,30.1561227 35.4000744,30.0289493 35.1246154,29.9105899 C34.8571712,29.7876136 34.5855087,29.6772287 34.3016129,29.5706213 C34.2973945,29.5664242 34.2893797,29.5664242 34.2813648,29.562227 C33.0141687,29.0917273 31.62,28.7765219 30.1186849,28.6254247 C29.4690571,28.5599493 28.7983375,28.5272116 28.1115881,28.5272116 C21.2837469,28.5272116 14.2213648,32.6362145 14.2213648,39.5115542 C14.2213648,41.1971267 14.2213648,45.9936216 21.9540447,48.776747 L17.5736973,59.5848096 C7.21255583,55.880831 1.96828784,49.1817713 1.96828784,39.6257165" id="Fill-22" fill="#FFFFFF"></path>
                    <path d="M56.6402457,77.5139126 C55.1018089,90.1594843 44.2310893,98.6553409 29.5921067,98.6553409 C22.2584839,98.6553409 15.3399479,96.2612906 10.1121315,91.9155689 C5.09438958,87.7448681 1.85679653,81.9238506 1.39235484,76.2207729 C1.27677171,74.7887078 1.39488586,73.3029192 1.39488586,73.3029192 L13.3446625,73.3029192 C13.3446625,73.3029192 13.3843151,74.2560903 13.5749851,75.2533315 C13.7293772,76.0625406 13.9997742,77.0115146 14.1638685,77.4320683 C14.1967717,77.5223069 14.2296749,77.6159032 14.2663747,77.7061418 C14.4106427,78.0826255 14.5793772,78.4549121 14.7641414,78.8192241 C14.8134963,78.9136598 14.8628511,79.0034786 14.9084094,79.0937172 C14.9573424,79.1877332 15.0071191,79.2775521 15.0602705,79.3677906 C15.2661266,79.7241281 15.4880124,80.0758486 15.7309901,80.4237918 C15.7352084,80.4275692 15.739005,80.4317663 15.7432233,80.4401606 C15.8461514,80.5912578 15.9570943,80.7389972 16.0722556,80.8858972 C16.8783846,81.9418983 17.8654814,82.9244495 19.0175161,83.7794075 C19.1077891,83.8490801 19.2022804,83.9187526 19.3009901,83.9884252 C19.3954814,84.0576781 19.4903945,84.1231535 19.5891042,84.1886289 C21.0739677,85.2034981 22.8056055,86.0139663 24.7388809,86.5255981 C26.240196,86.9264252 27.860469,87.1476146 29.5921067,87.1476146 C36.0499975,87.1476146 43.3878387,84.3237769 44.6297246,76.4088049 C45.2346377,68.7641289 38.9003449,65.3594066 33.9273176,63.8694209 L38.3123052,53.0533838 C44.3171439,54.9975003 48.9282357,57.7760089 52.0662754,61.3406423 C55.9163747,65.7153243 57.4548114,71.1581792 56.6402457,77.5139126" id="Fill-24" fill="#FFFFFF"></path>
                    <g id="Group" fill="#0CCD93">
                        <path d="M55.6402407,0.0967312286 L54.712201,2.41775123 L48.3121017,18.2036252 C48.2403896,18.1448652 48.1273375,18.0609224 48.0556253,18.0105567 C45.7313077,16.3228855 43.0210099,14.9403467 40.1651787,13.9502407 L45.8114566,0.0967312286 L55.6402407,0.0967312286 Z" id="Fill-16"></path>
                        <path d="M14.9414814,100.433838 L9.8288263,112.979098 L4.21836217e-05,112.979098 L0.928081886,110.657659 L7.02783375,95.6113211 C9.347933,97.5378097 12.013938,99.1658814 14.9414814,100.433838" id="Fill-19"></path>
                        <path d="M37.7707097,44.4876448 L37.7707097,44.4918419 L36.7793945,46.9219876 L28.7645062,66.6695448 L23.289072,80.1675562 C23.0528437,80.0290505 22.8208337,79.8863476 22.5972605,79.7310533 C22.5972605,79.7310533 22.474928,79.6475302 22.4411811,79.6261248 L22.1754243,79.4288591 C17.2947792,75.9859428 18.0173846,69.6360853 18.2055236,68.4281476 C18.2253499,68.2988756 18.261206,68.1746402 18.310139,68.0533428 L19.657062,64.7430562 L27.62133,45.1130191 L32.4133896,33.3148505 L33.3203375,33.7320465 C38.1533151,36.2247296 37.7707097,44.4876448 37.7707097,44.4876448" id="Fill-26"></path>
                    </g>
                </g>
            </g>
        </g>
    </g>
</svg>